{
	"asset":{
		"version":"2.0",
		"generator":"Created using the official Cinema 4D glTF Exporter 1.000x284978"
	},
	"buffers":[{
		"uri":"data:application/octet-stream;base64,",
		"byteLength":64
	},
	{
		"uri":"data:application/octet-stream;base64,",
		"byteLength":60
	},
	{
		"uri":"data:application/octet-stream;base64,",
		"byteLength":588
	},
	{
		"uri":"data:application/octet-stream;base64,",
		"byteLength":7680
	}],
	"scenes":[{
		"nodes":[0]
	}],
	"nodes":[{
		"name":"Null",
		"children":[1]
	},
	{
		"name":"group",
		"translation":[0.0,
		0.0,
		-9.672360280738686e-16],
		"rotation":[0.0,
		0.0,
		0.0,
		-1.0],
		"scale":[1.0,
		1.0,
		1.0],
		"children":[2,
		4,
		6]
	},
	{
		"name":"Polygon",
		"translation":[-5.421010862427522e-20,
		1.0,
		0.0],
		"rotation":[0.0,
		0.0,
		0.0,
		-1.0],
		"scale":[1.0,
		1.0,
		1.0],
		"children":[3]
	},
	{
		"name":"Polygon-Material.4",
		"mesh":0
	},
	{
		"name":"Disc",
		"children":[5]
	},
	{
		"name":"Disc-Material.6",
		"mesh":1
	},
	{
		"name":"Tube",
		"translation":[0.0,
		1.0,
		1.3322676295501879e-15],
		"rotation":[0.0,
		0.0,
		0.0,
		-1.0],
		"scale":[1.0,
		1.0,
		1.0],
		"children":[7]
	},
	{
		"name":"Tube-Material.1",
		"mesh":2
	}],
	"bufferViews":[{
		"buffer":0,
		"byteOffset":0,
		"byteLength":32
	},
	{
		"buffer":0,
		"byteOffset":32,
		"byteLength":32
	},
	{
		"buffer":1,
		"byteOffset":0,
		"byteLength":12,
		"target":34963
	},
	{
		"buffer":1,
		"byteOffset":12,
		"byteLength":48,
		"target":34962
	},
	{
		"buffer":2,
		"byteOffset":0,
		"byteLength":192,
		"target":34963
	},
	{
		"buffer":2,
		"byteOffset":192,
		"byteLength":396,
		"target":34962
	},
	{
		"buffer":3,
		"byteOffset":0,
		"byteLength":3840,
		"target":34963
	},
	{
		"buffer":3,
		"byteOffset":3840,
		"byteLength":3840,
		"target":34962
	}],
	"meshes":[{
		"name":"Polygon-Material.4",
		"primitives":[{
			"attributes":{
				"POSITION":5
			},
			"material":0,
			"indices":4
		}]
	},
	{
		"name":"Disc-Material.6",
		"primitives":[{
			"attributes":{
				"POSITION":7
			},
			"material":1,
			"indices":6
		}]
	},
	{
		"name":"Tube-Material.1",
		"primitives":[{
			"attributes":{
				"POSITION":9
			},
			"material":2,
			"indices":8
		}]
	}],
	"accessors":[{
		"max":[3.0],
		"bufferView":0,
		"type":"SCALAR",
		"min":[0.0],
		"componentType":5126,
		"byteOffset":0,
		"count":2
	},
	{
		"max":[0.0,
		0.0,
		-9.672360280738686e-16],
		"bufferView":0,
		"type":"VEC3",
		"min":[0.0,
		0.0,
		-9.672360280738686e-16],
		"componentType":5126,
		"byteOffset":8,
		"count":2
	},
	{
		"max":[3.0],
		"bufferView":1,
		"type":"SCALAR",
		"min":[0.0],
		"componentType":5126,
		"byteOffset":0,
		"count":2
	},
	{
		"max":[1.0,
		1.0,
		1.0],
		"bufferView":1,
		"type":"VEC3",
		"min":[1.0,
		1.0,
		1.0],
		"componentType":5126,
		"byteOffset":8,
		"count":2
	},
	{
		"max":[3],
		"bufferView":2,
		"type":"SCALAR",
		"min":[0],
		"componentType":5123,
		"byteOffset":0,
		"count":6
	},
	{
		"max":[332.98333740234377,
		2.475659132003784,
		392.98333740234377],
		"bufferView":3,
		"type":"VEC3",
		"min":[-332.98333740234377,
		2.475659132003784,
		-272.98333740234377],
		"componentType":5126,
		"byteOffset":0,
		"count":4
	},
	{
		"max":[32],
		"bufferView":4,
		"type":"SCALAR",
		"min":[0],
		"componentType":5123,
		"byteOffset":0,
		"count":96
	},
	{
		"max":[574.9666748046875,
		0.0,
		574.9666748046875],
		"bufferView":5,
		"type":"VEC3",
		"min":[-574.9666748046875,
		0.0,
		-574.9666748046875],
		"componentType":5126,
		"byteOffset":0,
		"count":33
	},
	{
		"max":[319],
		"bufferView":6,
		"type":"SCALAR",
		"min":[0],
		"componentType":5123,
		"byteOffset":0,
		"count":1920
	},
	{
		"max":[659.4075317382813,
		1.566982626914978,
		659.4075317382813],
		"bufferView":7,
		"type":"VEC3",
		"min":[-659.4075317382813,
		1.566982626914978,
		-659.4075317382813],
		"componentType":5126,
		"byteOffset":0,
		"count":320
	}],
	"materials":[{
		"pbrMetallicRoughness":{
			"baseColorFactor":[1.0,
			1.0,
			1.0,
			1.0],
			"metallicFactor":1.0,
			"roughnessFactor":0.0
		},
		"emissiveFactor":[0.0,
		0.0,
		0.0],
		"name":"Material.4",
		"alphaMode":"OPAQUE",
		"doubleSided":false
	},
	{
		"pbrMetallicRoughness":{
			"baseColorFactor":[0.006900000000000007,
			0.13213499999999957,
			0.6900000000000001,
			1.0],
			"metallicFactor":1.0,
			"roughnessFactor":0.0
		},
		"emissiveFactor":[0.0,
		0.0,
		0.0],
		"name":"Material.6",
		"alphaMode":"OPAQUE",
		"doubleSided":false
	},
	{
		"pbrMetallicRoughness":{
			"baseColorFactor":[0.008500000000000008,
			0.30302499999999979,
			0.85,
			1.0],
			"metallicFactor":1.0,
			"roughnessFactor":0.0
		},
		"emissiveFactor":[0.0,
		0.0,
		0.0],
		"name":"Material.1",
		"alphaMode":"OPAQUE",
		"doubleSided":false
	}],
	"animations":[{
		"samplers":[{
			"input":0,
			"interpolation":"LINEAR",
			"output":1
		},
		{
			"input":2,
			"interpolation":"LINEAR",
			"output":3
		}],
		"channels":[{
			"sampler":0,
			"target":{
				"node":1,
				"path":"translation"
			}
		},
		{
			"sampler":1,
			"target":{
				"node":1,
				"path":"scale"
			}
		}]
	}]
}